<svg version="1.1" id="Calque_1" xmlns="http://www.w3.org/2000/svg" x="0" y="0" viewBox="0 0 236.9 75.2" xml:space="preserve"><path d="M61.4 43.8l-3.9 14H22.9l11.3-40.3h31.5l-32 26.3h27.7zM79.9 0H21L0 75.2h63.4c4.7 0 8.6-3.6 9.6-7.4.3-1.2 7.4-27.1 7.4-27.1l-6-8.8 10.8-8.8s2.2-7.6 3.2-11.4C90 6.2 85.5 0 79.9 0zm97.8 23.9h-5.4c-1.1 0-1.3.1-2.4 1-1.4 1.2-7.5 6.2-13.7 11.2l-7.5 27.1c-.8 2.9-.2 6 1.6 8.4 1.8 2.4 4.6 3.8 7.6 3.8H216l4.8-17.6h-52.5l9.4-33.9z"/><path d="M157.3 4.5c-.9.7-24.3 19.8-24.3 19.8L116.3 0h-16.1L79.4 75.2h18.2l14.1-51 12.1 17.9h14.8s24.3-19.8 27.2-22.2c2-1.7 3.6-2.4 6.5-2.4h41.9l-2 7.1 19.8-7.1L236.9 0h-67.8c-4.1 0-8.7 1.8-11.8 4.5z"/></svg>